<?xml version="1.0" encoding="utf-8"?>
<!-- Generator: Adobe Illustrator 26.0.1, SVG Export Plug-In . SVG Version: 6.00 Build 0)  -->
<svg version="1.1" xmlns="http://www.w3.org/2000/svg" xmlns:xlink="http://www.w3.org/1999/xlink" x="0px" y="0px"
	 viewBox="0 0 768 8000" style="enable-background:new 0 0 768 8000;" xml:space="preserve">
<style type="text/css">
	.st0{display:none;}
	.st1{display:inline;}
	.st2{clip-path:url(#SVGID_00000087410916401202885300000002355548483627034555_);}
	.st3{display:inline;fill:none;stroke:#000000;stroke-miterlimit:10;}
	.st4{fill:none;stroke:#000000;stroke-miterlimit:10;}
</style>
<g id="Capa_1" class="st0">
	<g class="st1">
		<g>
			<defs>
				<rect id="SVGID_1_" x="-439.1" y="-42.1" width="1715.2" height="3481.7"/>
			</defs>
			<clipPath id="SVGID_00000099664053567811936790000014013456695884634530_">
				<use xlink:href="#SVGID_1_"  style="overflow:visible;"/>
			</clipPath>
			<g style="clip-path:url(#SVGID_00000099664053567811936790000014013456695884634530_);">
				<defs>
					<rect id="SVGID_00000085941045118533278470000016160633693081960344_" x="-439.1" y="-42.1" width="1715.2" height="3481.7"/>
				</defs>
				<clipPath id="SVGID_00000062187497057953819570000002886906010953371555_">
					<use xlink:href="#SVGID_00000085941045118533278470000016160633693081960344_"  style="overflow:visible;"/>
				</clipPath>
				<g transform="matrix(1 0 0 1 0 0)" style="clip-path:url(#SVGID_00000062187497057953819570000002886906010953371555_);">
					
						<image style="overflow:visible;" width="2000" height="4285" xlink:href="1485AB0A.png"  transform="matrix(0.8576 0 0 0.8125 -439.0698 -42.0545)">
					</image>
				</g>
			</g>
		</g>
	</g>
	<rect class="st3" width="176.7" height="783.5"/>
	<rect y="778.3" class="st3" width="176.7" height="783.5"/>
	<rect y="1561.9" class="st3" width="176.7" height="783.5"/>
</g>
<g id="Capa_2">
	<path class="st4" d="M384,485.1c0,0-0.4,50.6,0,82l-15.3,106.5c0,0-5.2,85.5,0,97.7c5.2,12.2-4.7,122.2-2.3,127.4
		c2.3,5.2,6.6,72,8.6,92.5c2,20.5-1,18.5,0,27.5c2.6,23.7,0.1,89.5-2.4,63.3s5.3,88.6,2.4,122.2c-5.4,19.2-9.4,85.5,0,123.9l6,110
		c0,0-6.2,14.8-6,61.1c0,0,5.4,24.4,0,47.1s-25.5,66.3-23.8,83.8c0,0-5.2,50.6-24.4,54.1"/>
	<path class="st4" d="M394.9,485.1c0,0-3.5,52.4,0,68.1s-17.3,68.1-10.4,80.3c6.9,12.2,0.7,71.6-1.4,80.3c-2.2,8.7,1.5,62.8,1.4,82
		c-0.1,19.2,0,151.9,4.3,165.8c4.3,14,9.9,137.5,6.4,158.8s0.5,115.2-4.3,144.9s9.3,158,8.6,178c-0.7,20.1-2.5,17.5,2.5,54.1
		c5,36.7-3.4,55.9,0,68.1c3.4,12.2,26.1,52.4,29.6,71.6"/>
</g>
</svg>
